<svg width="16" height="16" viewBox="0 0 16 16" fill="none" xmlns="http://www.w3.org/2000/svg">
<path d="M12.0466 9.12C11.92 9.12 11.7933 9.16667 11.6933 9.26667L7.99996 12.96L4.30662 9.26667C4.11329 9.07333 3.79329 9.07333 3.59996 9.26667C3.40662 9.46 3.40662 9.78 3.59996 9.97333L7.64662 14.02C7.83996 14.2133 8.15996 14.2133 8.35329 14.02L12.4 9.97333C12.5933 9.78 12.5933 9.46 12.4 9.26667C12.3066 9.16667 12.1733 9.12 12.0466 9.12Z" fill="#FF2424"/>
<path d="M8 1.83333C7.72667 1.83333 7.5 2.06 7.5 2.33333V13.5533C7.5 13.8267 7.72667 14.0533 8 14.0533C8.27333 14.0533 8.5 13.8267 8.5 13.5533V2.33333C8.5 2.06 8.27333 1.83333 8 1.83333Z" fill="#FF2424"/>
</svg>
