<svg width="17" height="16" viewBox="0 0 17 16" fill="none" xmlns="http://www.w3.org/2000/svg">
<path d="M12.5466 6.88C12.42 6.88 12.2933 6.83333 12.1933 6.73333L8.49996 3.04L4.80662 6.73333C4.61329 6.92667 4.29329 6.92667 4.09996 6.73333C3.90662 6.54 3.90662 6.22 4.09996 6.02667L8.14662 1.98C8.33996 1.78667 8.65996 1.78667 8.85329 1.98L12.9 6.02667C13.0933 6.22 13.0933 6.54 12.9 6.73333C12.8066 6.83333 12.6733 6.88 12.5466 6.88Z" fill="#00A478"/>
<path d="M8.5 14.1667C8.22667 14.1667 8 13.94 8 13.6667V2.44667C8 2.17334 8.22667 1.94667 8.5 1.94667C8.77333 1.94667 9 2.17334 9 2.44667V13.6667C9 13.94 8.77333 14.1667 8.5 14.1667Z" fill="#00A478"/>
</svg>
