<svg width="55" height="55" viewBox="0 0 55 55" fill="none" xmlns="http://www.w3.org/2000/svg">
<path opacity="0.2" d="M25.64 52.3216C39.4135 53.2848 51.3598 42.8999 52.323 29.1264C53.2861 15.353 42.9013 3.40657 29.1278 2.44344C15.3543 1.4803 3.40791 11.8651 2.44478 25.6386C1.48164 39.4121 11.8665 51.3585 25.64 52.3216Z" fill="#32A4BE"/>
<path opacity="0.2" d="M25.64 52.3216C39.4135 53.2848 51.3598 42.8999 52.323 29.1264C53.2861 15.353 42.9013 3.40657 29.1278 2.44344C15.3543 1.4803 3.40791 11.8651 2.44478 25.6386C1.48164 39.4121 11.8665 51.3585 25.64 52.3216Z" fill="#C2A633"/>
<mask id="mask0_2002_270" style="mask-type:luminance" maskUnits="userSpaceOnUse" x="2" y="2" width="51" height="51">
<path d="M25.64 52.3216C39.4135 53.2848 51.3598 42.8999 52.323 29.1264C53.2861 15.353 42.9013 3.40657 29.1278 2.44344C15.3543 1.4803 3.40791 11.8651 2.44478 25.6386C1.48164 39.4121 11.8665 51.3585 25.64 52.3216Z" fill="white"/>
</mask>
<g mask="url(#mask0_2002_270)">
<path fill-rule="evenodd" clip-rule="evenodd" d="M28.4959 17.4084L21.6865 16.9322L21.0541 25.976L16.8998 25.6855L16.689 28.7002L20.8433 28.9907L20.2109 38.0345L27.0203 38.5107C30.6145 38.762 31.4153 38.4397 33.0168 37.7952C33.1412 37.7452 33.2703 37.6932 33.406 37.6394C35.2892 36.8926 36.7913 35.7607 37.9123 34.2436C39.0333 32.7265 39.6675 30.9129 39.8151 28.8026C39.9627 26.6924 39.587 24.8081 38.688 23.1498C37.7891 21.4915 36.4592 20.1615 34.6982 19.1598C32.9373 18.1582 30.8698 17.5744 28.4959 17.4084ZM25.9035 29.3445L25.5515 34.3789L27.0508 34.4838C29.2373 34.6367 31.0224 34.1708 32.4061 33.0861C33.7898 32.0014 34.5519 30.4542 34.6924 28.4444C34.833 26.4347 34.2936 24.7964 33.0743 23.5297C31.8551 22.263 30.1522 21.5532 27.9657 21.4003L26.4664 21.2955L26.1143 26.3299L30.9559 26.6684L30.745 29.6831L25.9035 29.3445Z" fill="#C2A633"/>
</g>
</svg>
