<svg width="55" height="54" viewBox="0 0 55 54" fill="none" xmlns="http://www.w3.org/2000/svg">
<path opacity="0.2" d="M25.9169 51.6221C39.6903 52.5852 51.6367 42.2004 52.5999 28.4269C53.563 14.6534 43.1782 2.70705 29.4047 1.74391C15.6312 0.780776 3.6848 11.1656 2.72166 24.9391C1.75853 38.7126 12.1434 50.659 25.9169 51.6221Z" fill="#F7931A"/>
<path fill-rule="evenodd" clip-rule="evenodd" d="M38.6974 23.2285C38.0189 22.5855 37.1024 22.2233 35.9479 22.1422C37.2239 21.1442 37.6184 19.7626 37.1319 17.9971C36.9603 17.356 36.6884 16.8222 36.3157 16.3948C35.9428 15.9673 35.4855 15.6513 34.9425 15.4471C34.3998 15.2424 33.8263 15.1149 33.2231 15.0636C32.6198 15.0124 31.9385 15.0181 31.1797 15.0807L30.5223 11.3521L28.3394 11.737L28.9786 15.362C28.6006 15.4287 28.0258 15.5402 27.2545 15.6966L26.61 12.042L24.4269 12.4269L25.0843 16.1555C24.7741 16.2204 24.3167 16.3063 23.7119 16.4129L20.704 16.9279L21.1319 19.3545L22.7053 19.077C23.4236 18.9504 23.9033 19.2117 24.1444 19.8607L24.8931 24.1072C24.9878 24.0905 25.0642 24.0823 25.1227 24.0821L24.8958 24.1221L25.9445 30.0699C25.9577 30.5861 25.728 30.8862 25.2555 30.9695L23.6821 31.2469L23.7201 34.0321L26.5553 33.5322C26.7349 33.5005 26.995 33.4572 27.3362 33.4017C27.6772 33.3467 27.9327 33.3042 28.1029 33.2742L28.7682 37.0471L30.9517 36.6621L30.2943 32.9335C30.6929 32.8737 31.2702 32.7768 32.0262 32.6435L32.681 36.3571L34.864 35.9722L34.1987 32.1993C34.9669 32.0233 35.6414 31.8285 36.222 31.6138C36.803 31.3991 37.3473 31.128 37.8544 30.7994C38.3615 30.4711 38.7689 30.1016 39.0765 29.6914C39.3844 29.2814 39.6115 28.7886 39.759 28.2132C39.9056 27.6381 39.9507 26.9945 39.8931 26.2823C39.7748 24.8898 39.3759 23.8718 38.6974 23.2285ZM27.7664 18.352L27.7666 18.352L28.5675 22.8942C28.6149 22.8859 28.7782 22.8598 29.058 22.8155C29.3377 22.7711 29.5574 22.7324 29.7172 22.6992C29.877 22.666 30.1115 22.6143 30.4209 22.5446C30.7302 22.4749 30.9852 22.4018 31.1862 22.3257C31.3871 22.2496 31.6208 22.1525 31.8873 22.0343C32.1538 21.9161 32.3671 21.7844 32.5265 21.6394C32.6861 21.4944 32.8378 21.3302 32.9808 21.1473C33.1238 20.9645 33.2182 20.752 33.263 20.5102C33.3079 20.2683 33.306 20.0092 33.2573 19.733C33.1999 19.4075 33.09 19.1294 32.9273 18.8988C32.7651 18.668 32.5844 18.4862 32.3855 18.3535C32.1869 18.2207 31.9358 18.1225 31.6321 18.0592C31.3288 17.9957 31.0544 17.9602 30.8095 17.9526C30.5646 17.945 30.2671 17.9567 29.9169 17.9879C29.5666 18.0192 29.2904 18.0552 29.088 18.0959C28.8857 18.1367 28.6315 18.1865 28.3251 18.2458C28.0191 18.3049 27.8329 18.3403 27.7666 18.352L27.7666 18.3519L27.7664 18.3519L27.7664 18.352ZM35.2615 28.0302C35.3735 27.8374 35.4543 27.6196 35.5043 27.3768C35.5542 27.1339 35.5547 26.8748 35.506 26.5983C35.4434 26.2431 35.3169 25.9399 35.1261 25.6889C34.9357 25.4376 34.7211 25.2419 34.4818 25.1007C34.2425 24.9598 33.9441 24.8573 33.587 24.7932C33.2295 24.729 32.9041 24.6924 32.6102 24.6831C32.3161 24.674 31.9586 24.6914 31.5378 24.7353C31.1166 24.7789 30.7878 24.8218 30.5516 24.8635C30.3153 24.9051 30.0115 24.9635 29.6398 25.0393C29.2682 25.1151 29.0446 25.1595 28.9691 25.1729L29.8509 30.1741C29.9266 30.1608 30.1017 30.1324 30.3767 30.0887C30.6517 30.0452 30.879 30.0079 31.0586 29.9762C31.2381 29.9446 31.4873 29.8929 31.806 29.8217C32.1248 29.7501 32.3976 29.6818 32.6247 29.6162C32.8521 29.5505 33.1139 29.4614 33.411 29.3479C33.7074 29.2344 33.9577 29.1195 34.1612 29.0019C34.3644 28.8847 34.5709 28.7417 34.7796 28.5725C34.9884 28.4036 35.1491 28.2226 35.2615 28.0302Z" fill="#F7931A"/>
<path fill-rule="evenodd" clip-rule="evenodd" d="M26.1851 47.7853C37.8396 48.6003 47.9481 39.8131 48.7631 28.1586C49.578 16.5041 40.7909 6.39565 29.1364 5.58069C17.4819 4.76573 7.3734 13.5529 6.55844 25.2074C5.74348 36.8619 14.5307 46.9704 26.1851 47.7853Z" stroke="#F7931A" stroke-width="1.38125"/>
</svg>
