<svg width="55" height="55" viewBox="0 0 55 55" fill="none" xmlns="http://www.w3.org/2000/svg">
<path opacity="0.2" d="M52.2632 29.1716C51.3051 42.8726 39.4219 53.2028 25.7211 52.2448C12.0201 51.2867 1.69003 39.4032 2.6481 25.7022C3.60616 12.0014 15.4895 1.67131 29.1905 2.62938C42.8912 3.58742 53.2213 15.4708 52.2632 29.1716Z" fill="#00A478"/>
<path d="M24.9424 26.8247L25.2458 22.4847L19.3595 22.0731L19.6255 18.2689L36.0743 19.4191L35.8045 23.2769L29.9182 22.8653L29.6184 27.1517L24.9424 26.8247Z" fill="#00A478"/>
<path fill-rule="evenodd" clip-rule="evenodd" d="M16.4917 26.7183C16.5929 25.2717 21.4064 24.4237 27.2927 24.8353C33.1791 25.247 37.8278 26.7565 37.7266 28.2032C37.6255 29.6499 32.8119 30.4978 26.9256 30.0862C21.0392 29.6746 16.3905 28.165 16.4917 26.7183ZM36.8464 28.1417C36.4988 27.5789 33.4242 25.6948 27.2628 25.264C21.1013 24.8331 17.7982 26.2174 17.3719 26.7799C17.7195 27.3426 20.8541 28.3694 27.0155 28.8003C33.2319 29.235 36.4239 28.6505 36.8464 28.1417Z" fill="#00A478"/>
<path d="M29.5249 28.4912L29.7347 25.4907C28.9682 25.3833 28.1468 25.272 27.3216 25.2143C26.5514 25.1604 25.8363 25.1104 25.1173 25.114L24.9075 28.1145C25.5677 28.1607 26.3341 28.2681 27.1043 28.3219C27.9257 28.4332 28.7509 28.4909 29.5249 28.4912Z" fill="#00A478"/>
<path d="M26.9254 30.0862C26.1553 30.0324 25.4401 29.9824 24.7287 29.8788L24.1704 37.8622L28.7915 38.1853L29.3535 30.1483C28.5796 30.1481 27.7506 30.1439 26.9254 30.0862Z" fill="#00A478"/>
</svg>
