<svg width="54" height="55" viewBox="0 0 54 55" fill="none" xmlns="http://www.w3.org/2000/svg">
<path opacity="0.2" d="M25.0611 52.4704C38.8346 53.4335 50.781 43.0487 51.7442 29.2752C52.7073 15.5017 42.3224 3.55531 28.549 2.59218C14.7755 1.62904 2.82909 12.0139 1.86595 25.7874C0.902816 39.5609 11.2877 51.5072 25.0611 52.4704Z" fill="#2C58A7"/>
<path fill-rule="evenodd" clip-rule="evenodd" d="M25.6323 12.5943C27.3382 12.7158 29.0444 12.8307 30.7501 12.9543C30.2292 14.692 29.7296 16.4333 29.2235 18.1742C31.3058 18.3154 33.3875 18.4653 35.4675 18.6086C35.0052 20.0641 34.5658 21.53 34.1098 22.9881C32.0325 22.8363 29.9539 22.7041 27.8773 22.5436C27.0768 25.2536 26.2996 27.9696 25.5055 30.68C25.3376 31.3215 25.1634 32.0522 25.4981 32.6699C25.7898 33.2212 26.4335 33.4344 27.0139 33.4706C28.6913 33.5967 30.3724 33.7011 32.0522 33.8251C31.5787 35.317 31.1431 36.8225 30.6823 38.3174C28.6547 38.1647 26.6268 38.0491 24.6003 37.8812C23.0174 37.7006 21.2867 37.1929 20.3184 35.8186C19.5379 34.7219 19.6073 33.2673 19.9448 32.0215C20.8994 28.7455 21.8476 25.4669 22.8022 22.1909C20.9603 22.0686 19.117 21.9376 17.2758 21.8066C17.7168 20.3474 18.1451 18.8852 18.5903 17.4284C20.4292 17.5614 22.2693 17.6769 24.1053 17.8206C24.6199 16.0804 25.1218 14.337 25.6323 12.5943Z" fill="#2C58A7"/>
<path fill-rule="evenodd" clip-rule="evenodd" d="M32.2546 12.8061C32.4822 13.4098 32.7101 14.0112 32.9489 14.6091C32.7125 15.3966 32.4845 16.1868 32.2608 16.9774C31.8523 16.9532 31.4441 16.9246 31.0335 16.8981C31.4527 15.5357 31.8144 14.1605 32.2546 12.8061Z" fill="#2C58A7"/>
<path fill-rule="evenodd" clip-rule="evenodd" d="M36.9485 18.4565C37.1906 19.0699 37.4282 19.6852 37.657 20.3042C37.0965 22.1133 36.5274 23.9219 35.986 25.7367C33.9051 25.6065 31.8284 25.446 29.748 25.3093C29.1003 27.593 28.4148 29.8631 27.7714 32.1472C27.383 32.1134 26.9948 32.0448 26.6266 31.9076C27.3357 29.2699 28.1317 26.6557 28.8937 24.0326C30.9621 24.1882 33.0345 24.3156 35.1026 24.4755C35.722 22.4716 36.3585 20.4712 36.9485 18.4565Z" fill="#2C58A7"/>
<path fill-rule="evenodd" clip-rule="evenodd" d="M16.6104 23.1715C18.0663 23.2842 19.5257 23.3797 20.9844 23.4839C20.8662 23.8777 20.7479 24.2736 20.6316 24.6696C19.7885 24.5932 18.938 24.5905 18.0998 24.4729C17.5463 24.1131 17.1045 23.6081 16.6104 23.1715Z" fill="#2C58A7"/>
<path fill-rule="evenodd" clip-rule="evenodd" d="M31.6835 39.8076C32.289 37.7569 32.9514 35.7255 33.5165 33.6654C33.7498 34.2804 34.082 34.8716 34.2003 35.5266C33.7158 37.3913 33.085 39.2174 32.5582 41.0705C30.0789 40.8949 27.5951 40.7518 25.1173 40.5239C22.9226 40.2918 20.654 39.2636 19.5818 37.2136C20.2899 37.8005 21.0386 38.3641 21.9128 38.6765C23.6103 39.3807 25.4748 39.3014 27.2697 39.4772C28.7377 39.6344 30.2102 39.7265 31.6835 39.8076Z" fill="#2C58A7"/>
</svg>
