<svg width="54" height="55" viewBox="0 0 54 55" fill="none" xmlns="http://www.w3.org/2000/svg">
<path opacity="0.2" d="M24.9859 52.4162C38.7594 53.3794 50.7058 42.9945 51.6689 29.2211C52.632 15.4476 42.2472 3.50118 28.4737 2.53804C14.7002 1.5749 2.75383 11.9597 1.7907 25.7332C0.827559 39.5067 11.2124 51.4531 24.9859 52.4162Z" fill="#D96100"/>
<path fill-rule="evenodd" clip-rule="evenodd" d="M34.7873 23.2346C34.7274 20.9536 32.8246 20.0573 30.3704 19.6683L30.5901 16.5254L28.6765 16.3919L28.4626 19.4519C27.9602 19.4167 27.4455 19.3907 26.934 19.3652L27.1497 16.2849L25.2377 16.1512L25.0173 19.2931C24.6025 19.2726 24.1952 19.2518 23.7986 19.2244L23.799 19.2146L21.1605 19.0292L21.0182 21.0724C21.0182 21.0724 22.4328 21.1443 22.4075 21.1687C23.1823 21.2231 23.4036 21.6905 23.4493 22.0839L23.1991 25.6643C23.2525 25.6683 23.3221 25.6754 23.4004 25.6918L23.1988 25.6778L22.847 30.6936C22.796 30.9351 22.6254 31.3139 22.084 31.277C22.107 31.3004 20.6934 31.1794 20.6934 31.1794L20.1536 33.438L22.6437 33.6119C22.9248 33.6319 23.2029 33.6544 23.478 33.6766L23.4783 33.6766C23.6565 33.691 23.8334 33.7053 24.009 33.7188L23.7877 36.898L25.6986 37.032L25.919 33.8868C26.4424 33.9344 26.9499 33.9741 27.4457 34.0083L27.2259 37.1388L29.139 37.2724L29.3615 34.0994C32.5906 34.1398 34.8988 33.4869 35.3886 30.4869C35.7843 28.0707 34.7167 26.9055 32.9216 26.3389C34.07 25.8506 34.8331 24.904 34.7868 23.2347L34.7873 23.2346ZM31.6351 29.8442C31.4831 32.0245 28.0609 31.7369 26.4964 31.6054C26.3563 31.5937 26.2311 31.5831 26.1245 31.5758L26.4195 27.3643C26.5498 27.3734 26.7084 27.3808 26.888 27.3891C28.4956 27.4634 31.7902 27.6157 31.6356 29.8441L31.6351 29.8442ZM26.8687 25.4623C28.1747 25.5751 31.0213 25.821 31.1603 23.8402C31.3023 21.8138 28.5555 21.6949 27.2139 21.6368C27.0631 21.6303 26.9301 21.6245 26.8209 21.6169L26.5537 25.4366C26.6438 25.4429 26.7499 25.452 26.8687 25.4623Z" fill="#D96100"/>
</svg>
