<svg width="54" height="55" viewBox="0 0 54 55" fill="none" xmlns="http://www.w3.org/2000/svg">
<path opacity="0.2" d="M25.4071 52.565C39.1806 53.5281 51.127 43.1433 52.0901 29.3698C53.0532 15.5963 42.6684 3.64992 28.8949 2.68678C15.1214 1.72365 3.17503 12.1085 2.2119 25.882C1.24876 39.6555 11.6336 51.6018 25.4071 52.565Z" fill="#F3BA2F"/>
<path fill-rule="evenodd" clip-rule="evenodd" d="M22.0872 25.1177L27.6682 20.2684L32.5218 25.8516L35.7676 23.0282L28.0927 14.1973L19.2636 21.872L22.0872 25.1177ZM13.7223 26.6873L16.969 23.865L19.7914 27.1116L16.5447 29.9339L13.7223 26.6873ZM26.639 34.9858L21.7874 29.4048L18.5355 32.2235L18.5395 32.2281L26.2146 41.0548L35.0438 33.3779L35.0461 33.3759L32.2224 30.1324L26.639 34.9858ZM34.5107 28.1417L37.7574 25.3194L40.5798 28.5661L37.333 31.3883L34.5107 28.1417ZM27.3691 24.5449L30.2318 27.8402L30.2339 27.8403L30.2317 27.8423L26.9382 30.7072L24.0752 27.4161L24.0714 27.4094L24.076 27.4055L24.6525 26.9043L24.9338 26.6618L27.3691 24.5449Z" fill="#F3BA2F"/>
</svg>
