<svg width="54" height="55" viewBox="0 0 54 55" fill="none" xmlns="http://www.w3.org/2000/svg">
<path opacity="0.2" d="M25.3318 52.5108C39.1053 53.474 51.0516 43.0891 52.0148 29.3156C52.9779 15.5421 42.5931 3.59575 28.8196 2.63261C15.0461 1.66948 3.09972 12.0543 2.13658 25.8278C1.17345 39.6013 11.5583 51.5477 25.3318 52.5108Z" fill="#505050"/>
<path fill-rule="evenodd" clip-rule="evenodd" d="M22.4709 28.2334L21.592 31.0657L13.6124 27.8966L18.8371 28.2619L19.7357 25.1483L24.9392 25.5122L27.03 17.4269L32.9043 17.8377C36.9381 18.1197 38.2837 19.7448 37.4918 22.8087L37.3063 23.5203C36.7777 25.5628 35.6693 26.7841 33.7673 27.3106L33.7521 27.3679C35.6714 28.1661 36.1038 29.6981 35.561 31.798L35.1429 33.4141C34.351 36.478 31.9072 37.9828 28.0152 37.7106L21.8953 37.2827L24.2025 28.3489L22.4709 28.2334ZM28.0986 28.6269L26.5213 34.7259L28.7536 34.882C30.0629 34.9735 30.8951 34.5404 31.2764 33.0653L31.7238 31.3345C32.2004 29.4914 31.6033 28.872 29.8342 28.7483L28.0986 28.6269ZM28.832 25.79L30.1882 20.5415L32.0636 20.685C33.4376 20.7811 33.8834 21.4471 33.5162 22.8649L33.2306 23.9665C32.8205 25.5485 31.8043 25.9979 30.3533 25.8964L28.832 25.79Z" fill="white"/>
</svg>
