<svg width="54" height="55" viewBox="0 0 54 55" fill="none" xmlns="http://www.w3.org/2000/svg">
<path opacity="0.1" d="M51.917 29.0771C50.9589 42.7781 39.0757 53.1083 25.3749 52.1503C11.6739 51.1922 1.34384 39.3087 2.30191 25.6077C3.25996 11.9069 15.1433 1.57683 28.8443 2.53489C42.545 3.49294 52.8751 15.3763 51.917 29.0771" fill="#BEBEBE"/>
<path d="M25.9502 31.4555L27.3561 27.3427L30.0583 26.5644L30.8859 24.1474L30.8678 24.0847L28.2079 24.8509L30.5686 17.9451L25.2689 17.5745L22.1829 26.5864L20.0903 27.1891L19.2386 29.681L21.3295 29.0787L19.5108 34.3899L33.6155 35.3762L34.7553 32.0712L25.9502 31.4555" fill="#E4E4E4"/>
</svg>
