<svg width="54" height="54" viewBox="0 0 54 54" fill="none" xmlns="http://www.w3.org/2000/svg">
<path opacity="0.2" d="M51.8417 29.0229C50.8837 42.7238 39.0004 53.0541 25.2996 52.096C11.5986 51.1379 1.26856 39.2544 2.22662 25.5534C3.18468 11.8526 15.068 1.52254 28.769 2.4806C42.4697 3.43865 52.7998 15.322 51.8417 29.0229Z" fill="#505050"/>
<g opacity="0.8">
<path d="M27.7599 15.7718L27.5702 16.2819L26.5135 31.3946L26.656 31.5583L33.9611 27.9022L27.7599 15.7718Z" fill="white"/>
<path d="M27.7599 15.7718L19.9309 26.9211L26.656 31.5583L27.169 24.2231L27.7599 15.7718Z" fill="white"/>
<path d="M26.4964 33.8407L26.4027 33.9399L26.0262 39.3234L26.0949 39.5816L33.8056 30.187L26.4964 33.8407Z" fill="white"/>
<path d="M26.095 39.5817L26.4964 33.8407L19.7711 29.2056L26.095 39.5817Z" fill="white"/>
<path d="M26.656 31.5583L33.961 27.9022L27.1689 24.2231L26.656 31.5583Z" fill="white"/>
<path d="M19.9308 26.9211L26.6559 31.5583L27.1689 24.2231L19.9308 26.9211Z" fill="white"/>
</g>
</svg>
