<svg width="54" height="54" viewBox="0 0 54 54" fill="none" xmlns="http://www.w3.org/2000/svg">
<path opacity="0.2" d="M25.2563 51.9433C39.0298 52.9064 50.9762 42.5216 51.9393 28.7481C52.9025 14.9746 42.5176 3.02825 28.7442 2.06511C14.9707 1.10197 3.02428 11.4868 2.06114 25.2603C1.09801 39.0338 11.4828 50.9802 25.2563 51.9433Z" fill="#45525B"/>
<path fill-rule="evenodd" clip-rule="evenodd" d="M51.9393 28.7481C50.9761 42.5235 39.0317 52.9066 25.2563 51.9433C11.481 50.98 1.09787 39.0357 2.06114 25.2603C3.02441 11.4849 14.9688 1.10184 28.7442 2.06511C42.5195 3.02838 52.9026 14.9727 51.9393 28.7481Z" fill="#393534"/>
<path fill-rule="evenodd" clip-rule="evenodd" d="M49.0237 28.7594C48.181 40.8115 37.7253 49.9004 25.6732 49.0576C13.6211 48.2149 4.53219 37.7593 5.37495 25.7071C6.21772 13.655 16.6733 4.5661 28.7255 5.40886C40.7776 6.25163 49.8665 16.7072 49.0237 28.7594Z" fill="#F2F2F2"/>
<path fill-rule="evenodd" clip-rule="evenodd" d="M35.8955 21.5259L19.1051 36.4533L19.2139 29.9751L29.3342 21.0671L33.5361 17.2737L36.1312 16.6162L37.9385 17.2266L39.5615 18.7814L37.3181 21.0231L35.8955 21.5259Z" fill="white"/>
<path fill-rule="evenodd" clip-rule="evenodd" d="M37.2867 22.0736L33.9246 25.0868L38.6769 25.4191L39.2503 24.9106C39.6518 24.5515 39.9844 24.1015 40.223 23.6127C40.4623 23.1131 40.5968 22.574 40.635 22.0281C40.7113 20.9364 40.3772 19.8697 39.7047 19.0267L37.3854 21.1233C37.4942 21.2599 37.535 21.4456 37.523 21.6169C37.5003 21.7874 37.4134 21.9534 37.2867 22.0736Z" fill="#E1DED9"/>
<path fill-rule="evenodd" clip-rule="evenodd" d="M23.4492 34.776L20.7055 37.2516L25.4578 37.5839L28.223 35.1099L23.4492 34.776Z" fill="#E1DED9"/>
<path fill-rule="evenodd" clip-rule="evenodd" d="M24.8284 33.5197L29.5808 33.8521L32.623 31.107L27.8707 30.7746L24.8284 33.5197Z" fill="#E1DED9"/>
<path fill-rule="evenodd" clip-rule="evenodd" d="M37.2707 26.9145L32.5183 26.5822L29.2592 29.5057L34.0116 29.8381L37.2707 26.9145Z" fill="#E1DED9"/>
<path fill-rule="evenodd" clip-rule="evenodd" d="M37.8437 16.5226C38.4664 16.8458 39.0267 17.2937 39.4831 17.8419C39.9395 18.3901 40.2936 19.0172 40.4912 19.7301C40.7123 20.4124 40.8013 21.1393 40.7397 21.8664C40.6487 23.3228 39.994 24.6861 38.926 25.6547L38.9031 25.6746L25.7829 37.492C25.7248 37.5525 25.6454 37.6115 25.5683 37.6384C25.4796 37.6752 25.3933 37.6799 25.3076 37.6739L19.014 37.2338L16.3168 39.6589L14.4544 39.5286L18.0951 36.2231L18.5532 29.6725C18.5552 29.4898 18.6429 29.3131 18.7703 29.1822L31.9685 17.3272C32.4968 16.8478 33.1147 16.4716 33.7763 16.2382C34.438 16.0048 35.1435 15.9143 35.8392 15.963C36.5349 16.0116 37.2209 16.1994 37.8437 16.5226ZM32.8032 18.3106L32.2299 18.819L31.8803 23.8175L35.2669 20.7631C35.3929 20.6536 35.5694 20.5906 35.7406 20.6026C35.9119 20.6146 36.0786 20.6908 36.1874 20.8274C36.1868 20.8365 36.1864 20.8418 36.1877 20.8465C36.1895 20.853 36.1944 20.8586 36.2058 20.8717C36.3146 21.0084 36.3561 21.1834 36.3441 21.3547C36.3322 21.5259 36.2453 21.6919 36.1193 21.8014L32.7785 24.8161L37.5309 25.1484L38.1042 24.64C38.9081 23.911 39.3989 22.8912 39.4867 21.7895C39.5638 20.6871 39.2311 19.599 38.5587 18.756C38.5455 18.7551 38.541 18.7466 38.5348 18.7348C38.531 18.7275 38.5265 18.719 38.5189 18.7102C37.8136 17.8757 36.8167 17.365 35.7464 17.2902C34.676 17.2153 33.6178 17.5823 32.8032 18.3106ZM20.4042 35.965L23.1479 33.4895L27.9003 33.8218L25.1565 36.2974L20.4042 35.965ZM31.6662 25.8031L28.4056 28.7481L33.158 29.0804L36.4186 26.1355L31.6662 25.8031ZM32.0449 30.0782L29.0026 32.8233L24.2503 32.491L27.2925 29.7458L32.0449 30.0782ZM31.1175 19.806L27.857 22.751L27.5074 27.7495L30.768 24.8046L31.1175 19.806ZM23.7016 26.4939L26.7439 23.7488L26.3943 28.7473L23.3521 31.4924L23.7016 26.4939ZM22.6092 27.5038L19.8211 29.9978L19.4716 34.9963L22.2597 32.5023L22.6092 27.5038Z" fill="#393534"/>
</svg>
