<svg width="34" height="24" viewBox="0 0 34 24" fill="none" xmlns="http://www.w3.org/2000/svg">
<path d="M11.0621 2.53451C11.3843 1.66389 12.6157 1.66389 12.9379 2.53451L15.0815 8.32767C15.1828 8.60139 15.3986 8.8172 15.6723 8.91848L21.4655 11.0621C22.3361 11.3843 22.3361 12.6157 21.4655 12.9379L15.6723 15.0815C15.3986 15.1828 15.1828 15.3986 15.0815 15.6723L12.9379 21.4655C12.6157 22.3361 11.3843 22.3361 11.0621 21.4655L8.91848 15.6723C8.8172 15.3986 8.60139 15.1828 8.32767 15.0815L2.53451 12.9379C1.66389 12.6157 1.66389 11.3843 2.53451 11.0621L8.32767 8.91848C8.60139 8.8172 8.8172 8.60139 8.91848 8.32767L11.0621 2.53451Z" fill="#FCF7FF"/>
<path d="M26 12L27.0804 14.9196L30 16L27.0804 17.0804L26 20L24.9196 17.0804L22 16L24.9196 14.9196L26 12Z" fill="#FCF7FF"/>
<path d="M30 5L31.0804 7.91964L34 9L31.0804 10.0804L30 13L28.9196 10.0804L26 9L28.9196 7.91964L30 5Z" fill="#FCF7FF"/>
<path d="M23 3L24.0804 5.91964L27 7L24.0804 8.08036L23 11L21.9196 8.08036L19 7L21.9196 5.91964L23 3Z" fill="#FCF7FF"/>
</svg>
